<svg version="1.1" xmlns="http://www.w3.org/2000/svg" xmlns:xlink="http://www.w3.org/1999/xlink" xmlns:a="http://ns.adobe.com/AdobeSVGViewerExtensions/3.0/" x="0px" y="0px" viewBox="0 0 423.6 78.7" xml:space="preserve">
<style type="text/css">
	.st0{fill:#FFFFFF;}
</style>
<defs>
</defs>
<g>
	<path class="st0" d="M0,54.9l5.5-0.8v-42L0.1,11V4.7h12.5c1.1,0,2.2,0,3.1,0c1,0,1.9,0,3,0c1,0,2.1,0,3.2,0s2.4,0,3.8,0
		c4.1,0,7.6,0.3,10.4,0.8c2.9,0.5,5.2,1.4,6.9,2.6c1.8,1.2,3.1,2.7,3.9,4.6c0.8,1.9,1.2,4.1,1.2,6.8c0,1.4-0.2,2.9-0.6,4.4
		c-0.4,1.5-1,3-1.8,4.4c-0.8,1.4-1.9,2.7-3.2,3.8c-1.3,1.1-2.9,2-4.8,2.6c1.6,0.5,3,1.3,4.2,2.4c1.2,1.1,2.2,2.4,3.2,3.8
		c0.9,1.4,1.7,2.9,2.3,4.4c0.7,1.5,1.3,2.9,1.8,4.2c0.6,1.3,1.1,2.4,1.6,3.3c0.5,0.9,1.1,1.4,1.6,1.6l1.8,0.6v5.6H38.1
		c-0.5,0-0.9-0.3-1.3-0.9c-0.4-0.6-0.9-1.4-1.3-2.5c-0.4-1-0.9-2.2-1.3-3.5c-0.4-1.3-0.9-2.7-1.4-4.1c-0.5-1.4-0.9-2.8-1.4-4.2
		c-0.5-1.4-1-2.6-1.6-3.8s-1.1-2.1-1.8-2.9c-0.6-0.8-1.3-1.3-2-1.5h-5.4v16.9l6.3,0.8v5.6H0V54.9z M20.7,31.6
		c0.1,0.1,0.4,0.1,0.8,0.2c0.4,0,0.8,0.1,1.2,0.1c0.4,0,0.9,0,1.3,0s0.7,0,1,0c2.3,0,4.1-1,5.3-2.9c1.3-1.9,1.9-4.9,1.9-9.1
		c0-1.8-0.2-3.3-0.5-4.5s-0.8-2.3-1.4-3.1c-0.6-0.8-1.4-1.4-2.4-1.7S25.8,10,24.4,10c-1.1,0-1.9,0-2.5,0.1c-0.6,0.1-1,0.1-1.3,0.2
		C20.7,10.3,20.7,31.6,20.7,31.6z"/>
	<path class="st0" d="M81,60.5c-4.6,0-8.6-0.7-11.8-2s-5.9-3.2-7.9-5.7s-3.5-5.4-4.4-8.8c-0.9-3.4-1.4-7.2-1.4-11.4
		c0-4.2,0.6-8.1,1.8-11.5c1.2-3.4,2.9-6.4,5.2-8.8c2.2-2.4,5-4.3,8.2-5.6c3.2-1.3,6.9-2,11-2c4.6,0,8.6,0.6,11.8,1.9
		c3.2,1.3,5.9,3.1,7.9,5.4c2,2.3,3.5,5.1,4.4,8.4c0.9,3.3,1.4,7,1.4,11.1c0,4.3-0.6,8.2-1.8,11.7s-2.9,6.6-5.2,9.2
		c-2.3,2.6-5,4.6-8.2,6C88.7,59.8,85.1,60.5,81,60.5z M81.3,55c3,0,5.2-2,6.8-6c1.6-4,2.4-9.8,2.4-17.4c0-4.1-0.2-7.6-0.6-10.3
		c-0.4-2.8-1-4.9-1.8-6.6c-0.8-1.6-1.8-2.8-2.9-3.5c-1.1-0.7-2.4-1-3.8-1c-3,0-5.3,1.8-6.8,5.4c-1.6,3.6-2.4,9.2-2.4,16.8
		c0,4.2,0.2,7.7,0.6,10.5c0.4,2.9,1,5.2,1.8,6.9c0.8,1.8,1.8,3.1,2.9,3.8C78.6,54.6,79.9,55,81.3,55z"/>
	<path class="st0" d="M128.8,60.5c-2.1,0-4.2-0.4-6.2-1.2c-2-0.8-3.7-2-5.2-3.6c-1.5-1.6-2.7-3.7-3.6-6.2s-1.4-5.4-1.4-8.8
		c0-3.1,0.5-5.9,1.5-8.6c1-2.7,2.4-5,4.3-7s4.1-3.5,6.7-4.7c2.6-1.1,5.6-1.7,8.9-1.7c1.5,0,2.9,0.1,4.2,0.3c1.4,0.2,2.6,0.4,3.7,0.7
		V4.9l-7.8-0.7V1.4l12.3-1.2h0.2l1.4,1.1v55.1h4.6v2.9c-1,0.3-2.1,0.6-3.2,0.9c-1.2,0.3-2.5,0.5-3.9,0.5c-0.5,0-1,0-1.4-0.1
		c-0.4-0.1-0.7-0.2-1-0.4c-0.3-0.2-0.5-0.5-0.6-1c-0.1-0.4-0.2-1-0.2-1.8v-2.7c-0.7,0.7-1.4,1.4-2.3,2.2c-0.9,0.7-1.9,1.4-3,1.9
		c-1.1,0.6-2.3,1-3.6,1.3C131.7,60.4,130.3,60.5,128.8,60.5z M131.3,56.3c1.2,0,2.3-0.2,3.4-0.5c1.1-0.3,2.1-0.7,3-1.2
		c0.9-0.5,1.7-1.1,2.4-1.7c0.7-0.6,1.3-1.2,1.7-1.8V25.3c-0.2-0.4-0.6-0.7-1.2-1c-0.6-0.3-1.2-0.6-2-0.8c-0.8-0.2-1.6-0.4-2.5-0.6
		c-0.9-0.1-1.9-0.2-2.8-0.2c-2,0-3.9,0.3-5.6,1c-1.7,0.7-3.2,1.7-4.5,3.1c-1.3,1.4-2.3,3.2-3,5.4c-0.7,2.2-1.1,4.8-1.2,7.9
		c-0.1,2.9,0.2,5.4,0.9,7.5c0.6,2.1,1.5,3.7,2.7,5.1c1.1,1.3,2.5,2.3,4,2.9C128,56,129.6,56.3,131.3,56.3z"/>
	<path class="st0" d="M158.5,57.3l6.6-0.6V23.8l-5.9-1.3v-3.4l10.3-1.2h0.2l1.5,1.2v37.6l6.6,0.6v3.2h-19.2V57.3L158.5,57.3z
		 M165.3,8.9c-0.5-0.2-0.9-0.5-1.2-0.9c-0.3-0.4-0.6-0.8-0.8-1.3c-0.2-0.5-0.3-1.1-0.3-1.6c0-0.6,0.1-1.3,0.3-1.9
		c0.2-0.6,0.5-1.1,0.8-1.6c0.4-0.5,0.8-0.9,1.4-1.1c0.6-0.3,1.2-0.4,1.9-0.4h0c0.6,0,1.2,0.1,1.7,0.4c0.5,0.3,0.9,0.6,1.2,1
		c0.3,0.4,0.6,0.9,0.7,1.4c0.2,0.5,0.2,1,0.2,1.6c0,0.7-0.1,1.3-0.3,1.9c-0.2,0.6-0.5,1.1-0.8,1.6c-0.4,0.5-0.8,0.8-1.4,1.1
		c-0.6,0.3-1.2,0.4-2,0.4h0C166.3,9.3,165.8,9.2,165.3,8.9z"/>
	<path class="st0" d="M183.4,48.8c0-1.7,0.3-3.3,1-4.6c0.7-1.4,1.6-2.6,2.8-3.6c1.2-1,2.6-1.9,4.2-2.6c1.6-0.7,3.3-1.3,5.2-1.8
		c1.9-0.4,3.8-0.8,5.9-1s4.1-0.3,6.2-0.3v-2.1c0-1.6-0.1-3-0.4-4.2c-0.3-1.2-0.8-2.1-1.4-2.8c-0.7-0.7-1.6-1.3-2.8-1.6
		c-1.2-0.3-2.6-0.5-4.4-0.5c-1.5,0-2.9,0.1-4.2,0.4c-1.3,0.3-2.6,0.6-3.7,1c-1.1,0.4-2.2,0.8-3.1,1.2c-0.9,0.4-1.6,0.8-2.2,1.1h0
		l-1.6-2.9c0.2-0.2,0.6-0.5,1.2-0.9c0.6-0.4,1.3-0.8,2.1-1.2c0.8-0.4,1.7-0.8,2.7-1.2c1-0.4,2.1-0.8,3.2-1.1
		c1.1-0.3,2.3-0.6,3.5-0.8c1.2-0.2,2.4-0.3,3.5-0.3c2.5,0,4.7,0.3,6.4,0.8c1.7,0.5,3.2,1.3,4.2,2.4c1.1,1.1,1.8,2.6,2.3,4.3
		c0.5,1.8,0.7,3.9,0.7,6.4v23.8h4.7v2.8c-0.4,0.1-0.9,0.2-1.5,0.4c-0.6,0.1-1.2,0.3-1.8,0.4c-0.6,0.1-1.3,0.2-1.9,0.3
		s-1.3,0.1-1.8,0.1c-0.5,0-1,0-1.4-0.1c-0.4-0.1-0.7-0.2-1-0.4c-0.3-0.2-0.4-0.5-0.6-1c-0.1-0.4-0.2-1-0.2-1.7v-2.7
		c-0.5,0.4-1.1,0.9-1.9,1.6c-0.8,0.7-1.8,1.3-2.9,2c-1.1,0.6-2.4,1.2-3.8,1.7c-1.4,0.5-2.9,0.7-4.5,0.7c-1.7,0-3.2-0.2-4.8-0.7
		c-1.5-0.5-2.8-1.2-4-2.1c-1.2-1-2.1-2.2-2.8-3.6C183.8,52.6,183.4,50.8,183.4,48.8z M190.1,48.4c0,1.5,0.2,2.8,0.6,3.9
		c0.4,1,1,1.9,1.7,2.5c0.7,0.6,1.6,1.1,2.6,1.4s2,0.4,3.2,0.4c0.8,0,1.6-0.1,2.5-0.4c0.9-0.3,1.8-0.6,2.7-1.1c0.9-0.4,1.8-1,2.7-1.5
		c0.9-0.6,1.7-1.2,2.5-1.8V38.4c-3.1,0-5.9,0.3-8.2,0.7c-2.3,0.5-4.2,1.2-5.8,2.1c-1.5,0.9-2.7,1.9-3.4,3.1
		C190.5,45.6,190.1,46.9,190.1,48.4z"/>
	<path class="st0" d="M225.8,48.4h4l1.1,5.6c0.2,0.4,0.7,0.7,1.3,1.1c0.6,0.4,1.3,0.7,2.1,1c0.8,0.3,1.7,0.5,2.7,0.7
		c1,0.2,2,0.3,3,0.3c1.7,0,3.1-0.2,4.3-0.5c1.2-0.3,2.1-0.8,2.8-1.3c0.7-0.6,1.3-1.3,1.6-2.1c0.3-0.8,0.5-1.7,0.5-2.7
		c0-1.1-0.2-2-0.7-2.8c-0.5-0.8-1.2-1.5-2.1-2.2s-2.1-1.3-3.5-1.9s-3.1-1.2-4.9-1.9c-2-0.7-3.7-1.4-5.1-2.2
		c-1.5-0.8-2.7-1.7-3.6-2.7c-1-1-1.7-2.1-2.1-3.4c-0.5-1.3-0.7-2.7-0.7-4.4c0-1.6,0.4-3,1.2-4.3c0.8-1.3,1.8-2.3,3.1-3.2
		c1.3-0.9,2.9-1.5,4.6-2c1.8-0.5,3.6-0.7,5.6-0.7c1.5,0,2.9,0.1,4.1,0.3c1.2,0.2,2.4,0.4,3.3,0.7c1,0.3,1.8,0.5,2.5,0.8
		s1.2,0.5,1.6,0.6v8.5h-3.7l-1.3-5.2c-0.2-0.3-0.5-0.6-0.9-0.9c-0.5-0.3-1-0.5-1.6-0.7c-0.6-0.2-1.3-0.4-2.1-0.5
		c-0.8-0.1-1.6-0.2-2.4-0.2c-1.2,0-2.3,0.1-3.4,0.4c-1,0.3-1.9,0.6-2.6,1.1s-1.3,1.1-1.7,1.8s-0.6,1.5-0.6,2.4
		c0,1.4,0.3,2.5,0.8,3.4c0.6,0.9,1.3,1.7,2.3,2.3c0.9,0.6,2,1.2,3.2,1.6c1.2,0.5,2.4,0.9,3.6,1.4c1.7,0.6,3.3,1.3,4.8,2
		c1.6,0.7,2.9,1.5,4.1,2.4c1.2,0.9,2.2,2,2.9,3.3c0.7,1.3,1.1,2.8,1.1,4.6s-0.4,3.4-1.1,4.8c-0.7,1.4-1.8,2.6-3.2,3.6
		c-1.4,1-3,1.7-4.9,2.2c-1.9,0.5-4,0.8-6.3,0.8c-1.2,0-2.4-0.1-3.7-0.3c-1.3-0.2-2.6-0.5-3.9-0.8c-1.2-0.3-2.4-0.7-3.4-1
		c-1-0.4-1.9-0.7-2.5-1.1L225.8,48.4L225.8,48.4z"/>
	<path class="st0" d="M272.7,66v8.4l8.3,0.8v3.4h-20.1v-3.4l5.8-0.8V25.1l-5.9-1.2v-3.6l9.6-1.2h0.2l1.4,1.2V25
		c0.7-0.7,1.4-1.4,2.3-2.2c0.9-0.7,1.9-1.4,3.1-2s2.4-1.1,3.7-1.5c1.4-0.4,2.8-0.6,4.4-0.6c2.1,0,4.1,0.4,6.1,1.1
		c2,0.7,3.7,1.9,5.3,3.5c1.5,1.6,2.8,3.6,3.7,6.1s1.4,5.4,1.4,8.9c0,3.1-0.5,6-1.5,8.7c-1,2.7-2.4,5-4.3,7s-4,3.6-6.7,4.7
		c-2.6,1.2-5.5,1.7-8.7,1.7c-0.7,0-1.4,0-2.1-0.1c-0.8-0.1-1.5-0.1-2.2-0.2c-0.7-0.1-1.4-0.2-2.1-0.4c-0.7-0.1-1.3-0.3-1.8-0.5
		L272.7,66z M272.7,54.6c0.2,0.3,0.5,0.6,1,0.8c0.5,0.3,1.1,0.5,1.9,0.8c0.8,0.2,1.6,0.4,2.5,0.6c0.9,0.1,1.9,0.2,2.9,0.2
		c2,0,3.9-0.3,5.6-1c1.7-0.7,3.2-1.8,4.5-3.2c1.3-1.4,2.3-3.3,3-5.5s1.1-4.8,1.2-7.8c0-2.8-0.3-5.3-1-7.3c-0.7-2-1.6-3.7-2.7-5
		c-1.1-1.3-2.5-2.2-4-2.8c-1.5-0.6-3.1-0.9-4.8-0.9c-1.2,0-2.3,0.1-3.4,0.4c-1.1,0.3-2,0.6-2.9,1c-0.9,0.4-1.7,0.9-2.4,1.4
		c-0.7,0.5-1.3,1-1.7,1.5L272.7,54.6L272.7,54.6z"/>
	<path class="st0" d="M308.9,39.6c0-3.2,0.6-6.2,1.7-8.7c1.1-2.6,2.6-4.7,4.4-6.5c1.8-1.8,3.9-3.1,6.2-4.1c2.3-0.9,4.6-1.4,7-1.4
		c3.4,0,6.2,0.6,8.6,1.7c2.4,1.1,4.3,2.7,5.8,4.6c1.5,1.9,2.6,4.1,3.2,6.7c0.7,2.5,1,5.2,1,8c0,3.3-0.6,6.2-1.7,8.8
		c-1.1,2.6-2.6,4.7-4.4,6.5c-1.8,1.8-3.9,3.1-6.2,4.1c-2.3,0.9-4.7,1.4-7.1,1.4c-3.4,0-6.2-0.6-8.6-1.7s-4.3-2.7-5.7-4.6
		c-1.5-1.9-2.5-4.1-3.2-6.7C309.2,45.1,308.9,42.4,308.9,39.6z M327.8,56.6c3.8,0,6.8-1.4,8.9-4.1c2.1-2.8,3.2-6.9,3.2-12.3
		c0-2.3-0.2-4.6-0.6-6.7c-0.4-2.1-1.1-4-2.1-5.6c-0.9-1.6-2.2-2.9-3.7-3.8c-1.5-0.9-3.4-1.4-5.6-1.4c-3.8,0-6.8,1.4-8.9,4.1
		c-2.1,2.8-3.2,6.9-3.2,12.3c0,2.4,0.2,4.6,0.7,6.7c0.4,2.1,1.1,4,2.1,5.6c1,1.6,2.2,2.9,3.7,3.8C323.7,56.2,325.6,56.6,327.8,56.6z
		"/>
	<path class="st0" d="M353.8,57.4l6-0.5V25l-5.8-1.3v-3.4l9.5-1.2h0.2l1.4,1.2V23l0,4.4h0c0.1-0.2,0.4-0.5,0.8-1
		c0.4-0.5,0.9-1,1.6-1.7c0.6-0.6,1.4-1.3,2.2-2c0.9-0.7,1.8-1.3,2.9-1.9c1-0.6,2.2-1.1,3.4-1.4c1.2-0.4,2.5-0.6,3.9-0.6
		c0.5,0,0.9,0,1.3,0.1c0.4,0.1,0.7,0.1,0.9,0.3v7c-0.2-0.2-0.6-0.4-1.2-0.7c-0.7-0.3-1.4-0.4-2.2-0.4c-1.6,0-3.1,0.2-4.4,0.5
		c-1.3,0.3-2.5,0.7-3.6,1.2c-1.1,0.5-2,1-2.8,1.5c-0.8,0.5-1.5,1-2.1,1.5v27.4h10v3.4h-22.1V57.4z"/>
	<path class="st0" d="M387.7,48.8c0-1.7,0.3-3.3,1-4.6c0.7-1.4,1.6-2.6,2.8-3.6c1.2-1,2.6-1.9,4.2-2.6c1.6-0.7,3.3-1.3,5.2-1.8
		c1.9-0.5,3.8-0.8,5.9-1c2-0.2,4.1-0.3,6.2-0.3v-2.1c0-1.6-0.1-3-0.4-4.2s-0.8-2.1-1.4-2.8c-0.7-0.7-1.6-1.3-2.8-1.6
		c-1.2-0.3-2.6-0.5-4.4-0.5c-1.5,0-2.9,0.1-4.2,0.4c-1.3,0.3-2.6,0.6-3.7,1c-1.1,0.4-2.2,0.8-3.1,1.2c-0.9,0.4-1.6,0.8-2.2,1.1h0
		l-1.6-2.9c0.2-0.2,0.6-0.5,1.2-0.9c0.6-0.4,1.3-0.8,2.1-1.2c0.8-0.4,1.7-0.8,2.7-1.2c1-0.4,2.1-0.8,3.2-1.1
		c1.1-0.3,2.3-0.6,3.5-0.8s2.4-0.3,3.5-0.3c2.5,0,4.7,0.3,6.4,0.8c1.7,0.5,3.2,1.3,4.2,2.4c1.1,1.1,1.8,2.6,2.3,4.3
		c0.5,1.8,0.7,3.9,0.7,6.4v23.8h4.7v2.8c-0.4,0.1-0.9,0.2-1.5,0.4c-0.6,0.1-1.2,0.3-1.8,0.4c-0.6,0.1-1.3,0.2-1.9,0.3
		s-1.3,0.1-1.8,0.1c-0.5,0-1,0-1.4-0.1c-0.4-0.1-0.7-0.2-1-0.4c-0.3-0.2-0.4-0.5-0.6-1c-0.1-0.4-0.2-1-0.2-1.7v-2.7
		c-0.5,0.4-1.1,0.9-1.9,1.6c-0.8,0.7-1.8,1.3-2.9,2c-1.1,0.6-2.4,1.2-3.8,1.7c-1.4,0.5-2.9,0.7-4.5,0.7c-1.7,0-3.2-0.2-4.8-0.7
		c-1.5-0.5-2.8-1.2-4-2.1c-1.2-1-2.1-2.2-2.8-3.6C388.1,52.6,387.7,50.8,387.7,48.8z M394.4,48.4c0,1.5,0.2,2.8,0.6,3.9
		c0.4,1,1,1.9,1.7,2.5c0.7,0.6,1.6,1.1,2.6,1.4s2,0.4,3.2,0.4c0.8,0,1.6-0.1,2.5-0.4s1.8-0.6,2.7-1.1c0.9-0.4,1.8-1,2.7-1.5
		c0.9-0.6,1.7-1.2,2.5-1.8V38.4c-3.1,0-5.9,0.3-8.2,0.7s-4.2,1.2-5.8,2.1c-1.5,0.9-2.7,1.9-3.4,3.1
		C394.8,45.6,394.4,46.9,394.4,48.4z"/>
</g>
</svg>
